HIERARCHY
ROOT Hips
{
  OFFSET 0.000000 0.000000 0.000000
  CHANNELS 6 Xposition Yposition Zposition Xrotation Yrotation Zrotation
  JOINT Spine
  {
    OFFSET 1.388230 22.849755 -8.157144
    CHANNELS 3 Xrotation Yrotation Zrotation
    JOINT Chest
    {
      OFFSET 1.388230 22.849755 -8.157144
      CHANNELS 3 Xrotation Yrotation Zrotation
      JOINT Neck
      {
        OFFSET 0.386562 8.498444 -3.690407
        CHANNELS 3 Xrotation Yrotation Zrotation
        JOINT Head
        {
          OFFSET 0.662911 7.396516 -7.447500
          CHANNELS 3 Xrotation Yrotation Zrotation
          End Site
          {
            OFFSET 0.198873 2.218955 -2.234250
          }
        }
      }
      JOINT LeftShoulder
      {
        OFFSET 17.248308 -1.208605 -0.261267
        CHANNELS 3 Xrotation Yrotation Zrotation
        JOINT LeftArm
        {
          OFFSET 7.635523 -21.435821 1.774202
          CHANNELS 3 Xrotation Yrotation Zrotation
          JOINT LeftForeArm
          {
            OFFSET 7.643843 -21.327462 -9.147581
            CHANNELS 3 Xrotation Yrotation Zrotation
            JOINT LeftHand
            {
              OFFSET 0.473402 -5.275506 -2.178749
              CHANNELS 3 Xrotation Yrotation Zrotation
              End Site
              {
                OFFSET 0.142021 -1.582652 -0.653625
              }
            }
          }
        }
      }
      JOINT RightShoulder
      {
        OFFSET -17.248308 1.208605 0.261267
        CHANNELS 3 Xrotation Yrotation Zrotation
        JOINT RightArm
        {
          OFFSET -12.133127 -21.363330 5.693170
          CHANNELS 3 Xrotation Yrotation Zrotation
          JOINT RightForeArm
          {
            OFFSET -7.740244 -22.047532 -5.230031
            CHANNELS 3 Xrotation Yrotation Zrotation
            JOINT RightHand
            {
              OFFSET -0.480044 -5.557554 -1.525311
              CHANNELS 3 Xrotation Yrotation Zrotation
              End Site
              {
                OFFSET -0.144013 -1.667266 -0.457593
              }
            }
          }
        }
      }
    }
  }
  JOINT LeftUpLeg
  {
    OFFSET 11.699587 -0.675443 -0.599665
    CHANNELS 3 Xrotation Yrotation Zrotation
    JOINT LeftLeg
    {
      OFFSET -6.527727 -38.483662 1.737457
      CHANNELS 3 Xrotation Yrotation Zrotation
      JOINT LeftFoot
      {
        OFFSET 3.065902 -35.809878 12.679608
        CHANNELS 3 Xrotation Yrotation Zrotation
        End Site
        {
          OFFSET 0.919771 -10.742963 3.803882
        }
      }
    }
  }
  JOINT RightUpLeg
  {
    OFFSET -11.699587 0.675443 0.599665
    CHANNELS 3 Xrotation Yrotation Zrotation
    JOINT RightLeg
    {
      OFFSET -1.173808 -37.981520 -1.210152
      CHANNELS 3 Xrotation Yrotation Zrotation
      JOINT RightFoot
      {
        OFFSET -7.846448 -39.021816 7.691272
        CHANNELS 3 Xrotation Yrotation Zrotation
        End Site
        {
          OFFSET -2.353934 -11.706545 2.307382
        }
      }
    }
  }
}
MOTION
Frames: 19
Frame Time: 0.083333
0.000000 60.000000 0.000000 -0.761052 0.042716 -0.010551 -0.761052 0.042716 -0.010551 0.153164 0.017050 0.056179 0.099297 -0.012558 -0.003803 5.000000 0.000000 0.000000 -0.027464 0.034519 0.533513 0.681685 -0.102457 0.344506 -97.315431 13.171353 34.010686 0.000000 0.000000 0.000000 2.507782 -1.334604 0.356902 3.202876 -0.291517 0.207146 -95.771871 -10.494472 -24.143646 0.000000 0.000000 0.000000 -2.141339 0.472996 1.176666 -0.453032 0.357501 1.086920 0.000000 0.000000 0.000000 -4.334311 0.120443 -0.222932 -2.884310 0.754126 0.634023 0.000000 0.000000 0.000000
-0.257243 60.000000 -1.638203 -0.775103 0.044211 -0.008912 -0.775103 0.044211 -0.008912 0.152257 0.018262 0.058871 0.098879 -0.012284 -0.003566 5.000000 0.000000 0.000000 -0.138342 -0.008417 0.474633 0.660185 -0.088974 0.308823 -97.583394 13.174358 33.865168 0.000000 0.000000 0.000000 2.144296 -1.137399 0.323476 2.762762 -0.250145 0.173815 -95.759684 -10.534093 -24.204686 0.000000 0.000000 0.000000 -2.163993 0.479002 1.198359 -0.456648 0.360145 1.095066 0.000000 0.000000 0.000000 -4.375546 0.121548 -0.225569 -2.899861 0.759703 0.644010 0.000000 0.000000 0.000000
-0.710694 60.000000 -4.164375 -0.775621 0.044270 -0.008842 -0.775621 0.044270 -0.008842 0.152249 0.018305 0.058969 0.098889 -0.012274 -0.003555 5.000000 0.000000 0.000000 -0.664287 -0.125368 1.238925 1.776031 -0.222051 0.787708 -95.428349 12.827682 34.465806 0.000000 0.000000 0.000000 5.053109 -2.673488 0.795579 6.485110 -0.577857 0.376815 -94.952400 -10.117910 -23.877167 0.000000 0.000000 0.000000 -2.164546 0.479163 1.199094 -0.456641 0.360253 1.095370 0.000000 0.000000 0.000000 -4.376676 0.121580 -0.225620 -2.900204 0.759862 0.644391 0.000000 0.000000 0.000000
-1.080862 60.000000 -5.480810 -2.161961 0.142330 0.024566 -2.161961 0.142330 0.024566 0.236978 0.077188 0.203606 0.153400 -0.013684 -0.000218 5.000000 0.000000 0.000000 -1.352121 -0.321845 1.687081 2.253127 -0.268097 0.961621 -95.529541 12.675783 34.139796 0.000000 0.000000 0.000000 5.143857 -2.734845 0.741796 6.281295 -0.512472 0.209509 -94.371510 -10.078508 -24.018020 0.000000 0.000000 0.000000 -5.509209 1.244367 3.152788 -1.289382 0.887260 2.718074 0.000000 0.000000 0.000000 -10.716143 0.290186 -0.621431 -6.806285 1.816268 1.634773 0.000000 0.000000 0.000000
-1.402397 60.000000 -5.917965 -3.055742 0.253554 0.170264 -3.055742 0.253554 0.170264 -0.028467 0.175105 0.399481 -0.010214 0.025294 0.024231 5.000000 0.000000 0.000000 -0.913195 -0.119048 2.272446 2.068388 -0.320672 1.054762 -95.741365 12.676806 34.017450 0.000000 0.000000 0.000000 5.366424 -2.975434 0.164326 5.633533 -0.349858 -0.170476 -93.992454 -10.217780 -24.361791 0.000000 0.000000 0.000000 -6.383620 1.518249 4.198700 -1.602700 0.960450 2.967589 0.000000 0.000000 0.000000 -11.687571 0.304339 -0.792311 -6.516839 1.858616 2.051523 0.000000 0.000000 0.000000
-1.822454 60.000000 -6.127072 -3.272165 0.325639 0.318652 -3.272165 0.325639 0.318652 0.035882 0.227810 0.529442 0.068558 0.037875 0.043863 5.000000 0.000000 0.000000 -0.537550 0.025771 2.487549 2.315889 -0.324508 1.094736 -94.078297 12.052572 33.849169 0.000000 0.000000 0.000000 5.761070 -3.362716 -0.667989 6.000954 -0.268871 -0.531742 -92.998234 -10.513858 -25.160418 0.000000 0.000000 0.000000 -5.415712 1.375395 4.801660 -0.755681 0.837386 2.501046 0.000000 0.000000 0.000000 -10.615640 0.293787 -0.559009 -5.092842 1.626702 2.406549 0.000000 0.000000 0.000000
-2.693350 60.000000 -5.835325 -3.941090 0.447478 0.512848 -3.941090 0.447478 0.512848 -0.007777 0.272369 0.624280 0.054752 0.064486 0.068744 5.000000 0.000000 0.000000 -1.081044 -0.164042 2.395819 3.732596 -0.455011 1.545849 -81.377183 9.622499 31.642044 0.000000 0.000000 0.000000 5.687795 -3.483041 -1.495454 6.551958 -0.305984 -0.534023 -92.583571 -10.683555 -25.571639 0.000000 0.000000 0.000000 -4.965008 1.306078 5.093631 -0.437819 0.907755 2.643100 0.000000 0.000000 0.000000 -10.372112 0.296337 -0.412147 -4.935817 1.664918 2.703999 0.000000 0.000000 0.000000
-3.798798 60.000000 -6.009728 -4.815133 0.649222 0.863515 -4.815133 0.649222 0.863515 -0.302860 0.337885 0.725941 -0.158837 0.142512 0.125199 5.000000 0.000000 0.000000 -2.627009 -0.636445 2.562273 6.962271 -1.013414 3.055374 -45.375081 4.942288 20.877724 0.000000 0.000000 0.000000 6.485791 -4.157904 -2.866611 8.082370 -0.469262 -0.349890 -92.623380 -10.544332 -25.345650 0.000000 0.000000 0.000000 -4.760250 1.267374 5.162030 -0.748026 0.845956 2.525045 0.000000 0.000000 0.000000 -10.514665 0.305420 -0.324493 -5.621400 1.843805 2.784972 0.000000 0.000000 0.000000
-5.242286 60.000000 -7.419654 -5.354758 0.822812 1.196194 -5.354758 0.822812 1.196194 -0.661584 0.402451 0.812592 -0.392686 0.263174 0.220710 5.000000 0.000000 0.000000 -5.237606 -1.043272 6.147242 10.670419 -2.323882 5.957138 0.000000 0.000000 0.000000 0.000000 0.000000 0.000000 9.469929 -5.744970 -3.148465 10.370767 -0.715829 -0.095139 -93.249062 -10.322734 -24.778484 0.000000 0.000000 0.000000 -4.371646 1.194760 5.315837 -1.539098 0.753010 2.401291 0.000000 0.000000 0.000000 -10.426405 0.300981 -0.357078 -6.517457 2.051686 2.781990 0.000000 0.000000 0.000000
-7.132708 60.000000 -8.927111 -5.127268 0.781927 1.139313 -5.127268 0.781927 1.139313 -0.740673 0.407389 0.810359 -0.493491 0.291980 0.238201 5.000000 0.000000 0.000000 -5.509200 -0.114598 16.069772 14.458912 -3.904265 9.050223 0.000000 0.000000 0.000000 0.000000 0.000000 0.000000 12.153124 -7.115215 -3.188574 10.937382 -0.877354 0.263568 -93.847886 -10.207204 -24.392925 0.000000 0.000000 0.000000 -3.897733 1.135577 5.836802 -2.292479 0.743528 2.502606 0.000000 0.000000 0.000000 -9.915546 0.288719 -0.309701 -6.712339 2.120052 2.868450 0.000000 0.000000 0.000000
-9.223938 60.000000 -9.803641 -5.724760 0.714724 0.873326 -5.724760 0.714724 0.873326 -0.715175 0.423717 0.849486 -0.549416 0.376154 0.312847 5.000000 0.000000 0.000000 -1.492384 2.081820 31.560754 17.673927 -5.216361 11.384807 -5.106387 -0.134192 0.633662 0.000000 0.000000 0.000000 11.078493 -6.628597 -3.631539 8.274462 -0.787329 0.603369 -94.613716 -10.077239 -23.932561 0.000000 0.000000 0.000000 -4.180633 1.225936 6.165557 -4.060590 0.604109 2.425506 0.000000 0.000000 0.000000 -9.448864 0.287885 -0.044757 -7.412224 2.283571 2.867427 0.000000 0.000000 0.000000
-10.495690 60.000000 -10.236750 -6.433424 0.512312 0.273928 -6.433424 0.512312 0.273928 -0.868111 0.491341 0.969220 -0.654147 0.589464 0.504706 5.000000 0.000000 0.000000 1.680935 3.504780 46.879697 16.901554 -5.726555 12.393156 -22.885241 -0.601406 2.839875 0.000000 0.000000 0.000000 8.887490 -5.569139 -3.907657 6.766781 -0.718840 0.759375 -94.613883 -9.796150 -23.514935 0.000000 0.000000 0.000000 -4.162462 1.261010 6.627269 -3.763293 0.547813 2.235433 0.000000 0.000000 0.000000 -8.918284 0.297899 0.460278 -8.313715 2.456387 2.723793 0.000000 0.000000 0.000000
-10.882674 60.000000 -10.698568 -7.049488 0.326380 -0.263198 -7.049488 0.326380 -0.263198 -1.095355 0.546342 1.046993 -0.828070 0.756132 0.642346 5.000000 0.000000 0.000000 0.527143 4.381733 58.741645 13.211861 -5.265699 11.883799 -37.731383 -0.991550 4.682162 0.000000 0.000000 0.000000 8.325280 -5.390608 -4.563595 7.362798 -0.747792 0.698737 -94.246184 -9.619069 -23.374447 0.000000 0.000000 0.000000 -4.397927 1.305183 6.524264 -3.327603 0.586696 2.273055 0.000000 0.000000 0.000000 -9.527406 0.344003 1.029805 -8.602771 2.500037 2.634686 0.000000 0.000000 0.000000
-10.757514 60.000000 -9.884128 -6.547269 0.185241 -0.524791 -6.547269 0.185241 -0.524791 -1.145695 0.592777 1.134953 -0.929680 0.810918 0.681011 5.000000 0.000000 0.000000 -0.155826 5.053757 66.119911 7.829121 -4.639014 11.111424 0.000000 0.000000 0.000000 0.000000 0.000000 0.000000 8.256324 -5.535414 -5.686929 6.473401 -0.664487 0.659328 -94.288670 -9.574253 -23.295386 0.000000 0.000000 0.000000 -3.405794 1.085031 6.694535 -0.255952 0.856653 2.507373 0.000000 0.000000 0.000000 -8.410414 0.333087 1.954671 -7.032452 2.100435 2.510327 0.000000 0.000000 0.000000
-10.498120 60.000000 -7.102860 -6.051251 0.053287 -0.769722 -6.051251 0.053287 -0.769722 -1.397501 0.671488 1.251790 -1.227907 0.836955 0.668223 5.000000 0.000000 0.000000 -0.396329 5.220306 67.491931 6.327829 -3.809231 9.367765 0.000000 0.000000 0.000000 0.000000 0.000000 0.000000 8.252471 -5.689276 -6.647194 4.926301 -0.537903 0.644837 -95.097076 -9.499887 -22.925393 0.000000 0.000000 0.000000 -0.773931 0.511046 7.211318 4.311145 1.293873 2.992953 0.000000 0.000000 0.000000 -6.100568 0.244078 2.727516 -4.309820 1.490790 2.578568 0.000000 0.000000 0.000000
-10.272721 60.000000 -2.480336 -5.596574 0.091510 -0.616463 -5.596574 0.091510 -0.616463 -1.878692 0.726758 1.272230 -1.733521 0.762847 0.537831 5.000000 0.000000 0.000000 -0.290677 4.976324 65.027198 6.051428 -2.912396 7.287536 0.000000 0.000000 0.000000 0.000000 0.000000 0.000000 7.719762 -5.573663 -7.500208 3.375806 -0.413870 0.637221 -96.067951 -9.404676 -22.473105 0.000000 0.000000 0.000000 -1.200138 0.625102 7.439818 5.459494 1.451720 3.301890 0.000000 0.000000 0.000000 -4.653094 0.169526 2.957491 -2.549921 1.101180 2.636331 0.000000 0.000000 0.000000
-10.160626 60.000000 1.786070 -5.475016 0.219934 -0.286547 -5.475016 0.219934 -0.286547 -2.289980 0.809196 1.354537 -2.208142 0.704496 0.429666 5.000000 0.000000 0.000000 -1.462827 4.930505 61.670762 4.806435 -2.376423 6.035271 -6.919738 0.813080 2.621738 0.000000 0.000000 0.000000 7.562312 -5.460259 -7.264018 2.353559 -0.340198 0.658713 -96.288368 -9.773746 -22.937832 0.000000 0.000000 0.000000 -3.461565 1.153227 7.329060 5.635883 1.475594 3.347862 0.000000 0.000000 0.000000 -4.973613 0.185260 2.776533 -2.752443 1.165014 2.715459 0.000000 0.000000 0.000000
-10.046391 60.000000 4.201604 -5.174189 0.439548 0.295608 -5.174189 0.439548 0.295608 -2.654100 0.960509 1.568221 -2.694591 0.722930 0.387375 5.000000 0.000000 0.000000 -2.283837 4.653909 56.123003 4.518706 -1.540474 4.002690 -38.025968 3.975755 13.318489 0.000000 0.000000 0.000000 7.027006 -4.854394 -5.405463 2.215436 -0.316623 0.610166 -95.931201 -10.128307 -23.564618 0.000000 0.000000 0.000000 -4.303837 1.312093 6.867564 5.116000 1.551257 3.675591 0.000000 0.000000 0.000000 -5.479342 0.206803 2.466192 -2.559879 1.157835 2.881306 0.000000 0.000000 0.000000
-9.925055 60.000000 4.817961 -4.608603 0.718558 1.080428 -4.608603 0.718558 1.080428 -3.104411 1.167731 1.858378 -3.299927 0.942401 0.497305 5.000000 0.000000 0.000000 -0.442033 3.777696 47.653831 2.114359 -0.266267 0.970126 -88.532716 8.055164 29.071879 0.000000 0.000000 0.000000 4.607771 -2.978961 -2.456799 1.919140 -0.263965 0.495155 -95.420251 -10.158034 -23.782880 0.000000 0.000000 0.000000 -4.785385 1.354019 6.058053 4.226121 1.680326 4.240776 0.000000 0.000000 0.000000 -6.609906 0.255389 2.012877 -2.255508 1.132336 3.083483 0.000000 0.000000 0.000000
